<?xml version="1.0" standalone="no"?>
<!DOCTYPE svg PUBLIC "-//W3C//DTD SVG 20010904//EN"
 "http://www.w3.org/TR/2001/REC-SVG-20010904/DTD/svg10.dtd">
<svg version="1.0" xmlns="http://www.w3.org/2000/svg"
 width="2048.000000pt" height="1536.000000pt" viewBox="0 0 2048.000000 1536.000000"
 preserveAspectRatio="xMidYMid meet">
<metadata>
Created by potrace 1.15, written by Peter Selinger 2001-2017
</metadata>
<g transform="translate(0.000000,1536.000000) scale(0.100000,-0.100000)"
fill="#000000" stroke="none">
<path d="M9720 14113 c-141 -4 -366 -23 -530 -44 -455 -58 -953 -205 -1319
-388 -570 -286 -1090 -724 -1431 -1205 -356 -503 -563 -979 -609 -1408 -22
-201 -10 -706 20 -795 13 -40 67 -89 116 -103 22 -7 182 -15 383 -20 190 -5
397 -14 460 -19 63 -6 120 -11 127 -11 9 0 13 -138 17 -547 3 -302 7 -619 8
-706 3 -154 2 -158 -17 -152 -11 3 -137 8 -280 10 -143 3 -317 10 -387 16
-145 13 -199 5 -270 -40 -38 -24 -52 -27 -98 -24 -71 6 -115 -21 -150 -92 -24
-47 -25 -61 -28 -237 -5 -248 17 -459 69 -692 22 -99 45 -191 51 -205 8 -21 6
-28 -8 -36 -40 -24 -175 -135 -253 -209 -157 -150 -314 -358 -357 -471 -15
-38 -19 -75 -18 -160 0 -101 3 -117 33 -190 18 -44 48 -108 67 -142 19 -34 34
-72 34 -85 0 -32 -40 -68 -186 -167 -142 -96 -208 -150 -269 -223 -84 -98
-116 -241 -96 -433 6 -61 11 -126 11 -143 0 -40 -48 -96 -139 -160 -76 -53
-90 -69 -91 -98 -1 -82 155 -39 287 80 80 72 86 96 77 316 -6 161 -4 194 11
245 31 107 107 184 335 335 224 148 242 205 137 420 -67 139 -81 190 -75 279
4 51 13 83 37 127 70 131 219 307 392 464 82 75 103 89 115 80 8 -7 14 -18 14
-25 0 -31 137 -431 187 -545 30 -69 70 -161 88 -205 172 -415 328 -695 508
-912 40 -48 102 -126 137 -173 155 -205 434 -492 635 -653 210 -169 472 -329
667 -406 157 -63 463 -135 774 -182 l80 -12 12 -136 c13 -147 19 -308 27 -690
4 -206 7 -249 22 -280 15 -29 24 -37 51 -39 59 -6 62 3 62 178 l0 158 48 -15
c102 -31 306 -54 541 -60 228 -6 234 -7 262 -30 34 -29 58 -27 78 8 12 22 12
29 0 54 -31 65 -138 101 -340 115 -369 26 -438 31 -510 42 l-76 11 -6 196 c-4
108 -13 256 -22 330 -8 74 -14 135 -12 137 1 2 45 -1 97 -6 289 -28 565 4
1031 121 443 111 739 244 1139 511 342 228 537 398 778 678 278 324 413 526
623 937 150 293 244 648 270 1018 22 323 20 309 54 316 17 4 85 7 152 8 102 1
132 -2 180 -20 101 -38 175 -89 268 -184 101 -103 176 -217 237 -356 40 -93
132 -426 120 -433 -4 -2 -32 -11 -62 -21 -75 -24 -393 -152 -455 -183 -88 -44
-161 -99 -175 -131 -16 -40 -6 -79 25 -93 29 -13 31 -20 40 -113 8 -80 91
-414 131 -526 37 -103 80 -186 103 -199 29 -15 57 -12 77 8 15 15 34 17 138
14 132 -3 185 4 539 77 226 47 375 92 429 128 24 16 43 40 53 67 15 40 15 45
-24 201 -22 88 -68 293 -101 454 -33 162 -68 309 -78 325 -29 51 -73 66 -187
66 -55 0 -143 -7 -195 -14 -52 -8 -96 -14 -97 -12 -1 1 -12 50 -23 110 -58
299 -172 519 -375 721 -120 120 -206 176 -337 222 -80 28 -196 35 -339 20
l-77 -8 -7 190 c-7 186 -4 266 16 369 20 104 -27 168 -132 182 -35 5 -82 15
-104 23 -22 8 -91 17 -152 21 -62 4 -158 16 -213 27 -79 15 -144 19 -302 19
l-201 0 9 153 c10 180 10 151 -8 502 -8 154 -13 362 -10 461 l4 181 152 7 c83
4 273 11 421 15 318 11 388 24 429 83 18 26 21 80 6 109 -9 16 -7 19 14 19 15
0 34 12 51 32 27 32 28 34 22 138 -6 118 -29 236 -93 487 -24 95 -59 248 -78
340 -53 254 -144 657 -171 753 -160 563 -427 1035 -809 1427 -233 240 -370
343 -609 458 -285 138 -659 232 -1052 265 -109 9 -324 10 -545 3z m540 -263
c256 -23 497 -72 713 -146 147 -50 367 -162 472 -240 120 -90 412 -384 506
-510 196 -261 355 -565 466 -889 75 -220 345 -1271 418 -1627 14 -65 31 -131
39 -146 l15 -28 -282 -3 c-155 -1 -286 -5 -291 -9 -6 -3 -139 -9 -296 -13
-157 -5 -301 -9 -322 -11 -20 -2 -34 0 -32 3 2 4 -40 7 -94 8 -155 2 -727 40
-925 61 -100 10 -306 26 -457 35 -151 9 -349 20 -440 26 -101 6 -370 7 -695 3
-350 -5 -620 -3 -795 5 -146 6 -632 13 -1080 16 -448 3 -837 9 -865 14 -28 5
-85 5 -132 1 -45 -5 -91 -6 -103 -3 l-22 6 5 336 c4 313 6 344 30 456 96 446
380 975 748 1390 432 489 1037 886 1613 1060 392 118 771 185 1156 205 223 11
523 11 650 0z m-2727 -3737 l-453 -3 -3 -433 -2 -432 -3 438 -2 437 458 -2
457 -3 -452 -2z m2492 -33 c187 -11 445 -30 574 -42 l233 -22 -4 -316 c-3
-173 -2 -418 2 -545 4 -126 9 -284 11 -350 l3 -120 -90 -7 c-401 -33 -650 -49
-834 -53 -118 -3 -377 -13 -575 -21 -370 -16 -1046 -16 -1062 -1 -10 10 -26
1346 -17 1436 l6 64 206 -5 c114 -3 342 -2 507 2 369 10 601 5 1040 -20z
m-2295 -322 c17 -11 22 -10 30 2 7 10 10 11 10 2 0 -13 47 -37 67 -33 7 1 17
-8 23 -19 6 -11 16 -17 22 -14 7 5 9 2 5 -9 -3 -9 1 -21 11 -29 11 -9 14 -10
8 0 -4 6 -2 12 3 12 10 0 15 -15 9 -23 -2 -2 5 -11 14 -21 9 -9 15 -23 12 -31
-4 -8 -2 -15 4 -15 5 0 8 -21 7 -47 -1 -27 3 -54 8 -60 6 -9 5 -13 -4 -13 -11
0 -11 -2 1 -10 8 -5 10 -10 4 -10 -7 0 -12 -6 -11 -12 1 -35 -5 -48 -20 -49
-11 0 -13 -3 -5 -6 8 -3 5 -11 -10 -25 -13 -11 -16 -16 -8 -12 8 4 -2 -9 -22
-29 -38 -38 -54 -47 -43 -24 4 6 -2 3 -12 -8 -19 -22 -59 -42 -48 -25 10 17
-7 11 -22 -7 -9 -11 -12 -12 -7 -3 6 12 4 13 -7 3 -16 -16 -75 -17 -84 -2 -4
6 -14 8 -22 5 -9 -4 -22 2 -30 11 -8 11 -11 12 -7 3 5 -10 1 -9 -14 3 -11 11
-26 16 -31 12 -6 -3 -11 1 -11 11 0 10 -3 14 -7 11 -9 -9 -34 13 -27 24 3 5
-3 6 -12 2 -11 -4 -15 -3 -10 5 3 6 2 13 -4 17 -6 4 -8 10 -5 15 3 5 0 12 -6
16 -8 5 -10 2 -5 -7 4 -8 -2 -3 -14 11 -13 15 -20 33 -17 47 2 13 0 23 -5 23
-5 0 -6 6 -2 12 5 7 7 27 5 45 -1 17 3 41 9 52 8 16 8 21 -1 21 -8 0 -9 4 0
13 6 8 8 17 4 20 -3 4 1 7 10 7 16 0 22 12 18 33 -1 5 3 6 9 2 5 -3 11 -1 11
4 1 6 2 17 3 24 0 6 11 13 24 15 12 2 20 7 17 11 -2 5 9 11 26 15 17 3 28 10
24 16 -4 6 1 7 11 3 11 -4 15 -2 11 4 -5 7 6 11 29 11 19 0 38 3 41 6 9 9 21
7 43 -6z m3619 -92 c1 14 51 15 51 2 0 -6 6 -6 14 1 11 9 15 8 20 -5 4 -9 13
-14 21 -10 8 3 15 1 15 -4 0 -6 5 -10 11 -10 5 0 7 6 4 13 -4 6 -1 5 7 -4 7
-9 18 -17 23 -18 6 -2 9 -7 7 -12 -1 -5 6 -13 15 -16 23 -9 43 -29 43 -43 0
-6 7 -13 15 -16 8 -4 12 -10 9 -15 -3 -5 1 -12 10 -15 9 -3 12 -12 9 -21 -4
-11 -2 -14 5 -9 6 4 10 -1 10 -11 0 -10 3 -27 7 -37 6 -14 5 -17 -3 -12 -7 4
-12 2 -12 -3 0 -6 7 -11 15 -11 8 0 15 -5 15 -11 0 -5 -4 -8 -9 -4 -5 3 -13 1
-16 -5 -4 -6 -3 -9 2 -8 4 2 8 -1 8 -7 0 -5 -3 -9 -7 -8 -3 1 -3 -10 1 -25 10
-34 4 -52 -16 -52 -9 0 -13 -3 -10 -7 4 -3 2 -12 -4 -20 -9 -10 -8 -13 1 -13
9 0 9 -6 -2 -22 -9 -13 -19 -22 -22 -20 -9 4 -46 -37 -46 -49 0 -5 -6 -6 -14
-3 -8 3 -19 -4 -26 -16 -8 -16 -18 -21 -36 -17 -13 2 -21 0 -18 -4 3 -5 -9 -7
-25 -5 -17 2 -28 0 -26 -5 3 -4 1 -10 -5 -14 -5 -3 -10 -2 -10 3 0 5 -17 9
-37 7 -21 -1 -42 0 -48 3 -5 4 -20 7 -33 8 -13 0 -28 7 -35 14 -10 10 -8 12 6
7 11 -4 16 -3 12 4 -4 5 -14 9 -23 7 -17 -3 -52 25 -52 42 0 5 -6 7 -13 5 -11
-5 -77 83 -77 102 0 4 5 1 10 -7 6 -9 10 -10 10 -3 0 6 -7 18 -15 27 -8 8 -15
21 -15 28 0 10 3 9 10 -2 8 -13 10 -13 10 2 0 9 -4 19 -9 22 -5 3 -5 21 -1 41
5 22 4 35 -2 35 -7 0 -6 5 1 13 6 8 8 17 4 20 -3 4 1 15 10 25 10 10 14 22 10
27 -5 4 -3 5 4 2 6 -4 15 5 21 22 6 16 20 32 31 36 19 6 25 17 22 38 0 4 6 7
15 7 9 0 23 8 31 18 10 11 12 12 8 2 -4 -8 1 -6 10 5 12 16 18 17 24 7 6 -11
10 -10 15 3 4 11 13 15 26 12 11 -3 20 0 21 6 0 7 4 3 9 -8 5 -11 9 -15 9 -9z
m-4854 -1174 c329 -13 376 -16 600 -47 216 -30 335 -42 565 -55 102 -6 280
-20 395 -31 312 -30 699 -35 1250 -15 841 30 977 36 1210 56 205 18 318 20
1055 20 658 0 841 -3 905 -14 44 -8 123 -17 175 -21 52 -3 109 -11 125 -16
l30 -9 -3 -367 c-1 -203 -7 -434 -12 -515 -19 -265 -93 -623 -169 -813 -30
-73 -170 -344 -239 -460 -210 -353 -560 -766 -841 -991 -117 -94 -425 -302
-568 -383 -308 -174 -602 -277 -1068 -371 -255 -52 -376 -64 -565 -57 -183 7
-350 31 -653 93 -361 73 -554 148 -801 311 -269 179 -554 444 -754 703 -36 47
-117 149 -181 228 -149 186 -201 268 -304 470 -133 261 -313 676 -373 859
-119 364 -210 716 -240 932 -20 143 -29 447 -15 484 l11 28 93 -4 c50 -3 218
-10 372 -15z m8099 -1821 c3 -4 10 -49 16 -98 20 -176 117 -635 155 -735 8
-20 -6 -27 -135 -64 -238 -68 -608 -130 -816 -136 l-80 -3 -38 125 c-82 275
-166 572 -166 590 0 20 63 60 94 60 8 0 53 -47 100 -104 47 -58 96 -113 109
-123 13 -10 45 -37 72 -60 l48 -43 -37 -72 c-46 -92 -53 -129 -31 -151 27 -28
52 -20 84 26 17 23 45 59 63 79 l33 37 150 -95 c83 -51 164 -103 181 -114 41
-27 68 -25 94 7 45 57 11 99 -188 230 -99 65 -140 97 -135 106 90 139 272 409
290 430 26 32 31 85 8 93 -8 4 -15 10 -15 15 0 12 137 12 144 0z m-217 -20
c-38 -25 -60 -53 -206 -263 -68 -98 -126 -178 -129 -178 -24 0 -272 235 -272
258 0 17 382 154 510 182 115 25 133 25 97 1z"/>
<path d="M7597 11450 c-241 -43 -491 -215 -572 -393 -35 -75 -41 -133 -18
-177 34 -66 120 -101 157 -64 23 22 20 49 -9 80 -41 44 -30 79 52 166 134 140
315 228 469 228 78 0 133 -28 211 -108 71 -71 124 -156 178 -285 37 -85 87
-147 120 -147 35 0 64 21 75 54 16 49 -7 133 -70 261 -83 169 -226 314 -359
365 -64 24 -163 33 -234 20z"/>
<path d="M11411 11369 c-99 -19 -155 -42 -240 -99 -122 -82 -188 -158 -256
-293 -46 -93 -55 -119 -55 -165 0 -46 4 -58 29 -83 35 -34 66 -37 121 -9 46
23 53 57 20 88 -20 19 -20 19 17 93 26 50 61 96 108 144 96 95 174 139 282
159 81 15 88 15 128 -3 34 -15 51 -33 90 -95 52 -84 129 -251 166 -360 30 -86
65 -126 111 -126 73 0 109 63 88 152 -26 105 -113 301 -189 421 -101 159 -231
213 -420 176z"/>
<path d="M8487 5952 c-20 -22 -22 -62 -4 -84 6 -9 44 -35 82 -59 39 -23 144
-97 235 -164 270 -199 344 -243 498 -299 155 -56 256 -69 507 -70 351 0 533
31 720 124 173 87 228 141 366 358 38 60 71 100 93 113 43 25 54 54 30 80 -38
42 -138 8 -201 -69 -21 -26 -55 -73 -76 -105 -52 -80 -102 -133 -167 -177
-169 -115 -335 -158 -647 -167 -288 -9 -486 22 -661 102 -92 43 -124 63 -364
228 -280 192 -371 234 -411 189z"/>
<path d="M10157 4178 c-12 -19 -13 -96 -6 -488 9 -571 21 -670 85 -686 48 -12
59 4 60 92 1 44 5 187 9 319 11 354 -13 699 -54 755 -25 35 -75 39 -94 8z"/>
<path d="M9325 3789 c-100 -11 -133 -24 -142 -57 -4 -19 -1 -30 15 -43 18 -14
53 -18 204 -23 260 -10 522 -33 564 -51 19 -8 47 -24 61 -35 33 -26 58 -25 77
2 13 19 13 25 0 57 -36 86 -116 133 -254 150 -97 13 -407 12 -525 0z"/>
</g>
</svg>
